<svg width="30" height="29" viewBox="0 0 30 29" fill="none" xmlns="http://www.w3.org/2000/svg">
<path d="M15 28.5833L12.825 26.5997C10.3 24.2854 8.2125 22.2891 6.5625 20.6106C4.9125 18.9321 3.6 17.4253 2.625 16.0901C1.65 14.755 0.96875 13.5279 0.58125 12.4089C0.19375 11.29 0 10.1455 0 8.9757C0 6.58514 0.7875 4.58878 2.3625 2.9866C3.9375 1.38442 5.9 0.583328 8.25 0.583328C9.55 0.583328 10.7875 0.863074 11.9625 1.42257C13.1375 1.98206 14.15 2.77043 15 3.78769C15.85 2.77043 16.8625 1.98206 18.0375 1.42257C19.2125 0.863074 20.45 0.583328 21.75 0.583328C24.1 0.583328 26.0625 1.38442 27.6375 2.9866C29.2125 4.58878 30 6.58514 30 8.9757C30 10.1455 29.8063 11.29 29.4188 12.4089C29.0313 13.5279 28.35 14.755 27.375 16.0901C26.4 17.4253 25.0875 18.9321 23.4375 20.6106C21.7875 22.2891 19.7 24.2854 17.175 26.5997L15 28.5833Z" fill="#E3E3E3"/>
</svg>
