<svg width="30" height="29" viewBox="0 0 30 29" fill="none" xmlns="http://www.w3.org/2000/svg">
<path d="M15 28.9165L12.825 26.9329C10.3 24.6186 8.2125 22.6222 6.5625 20.9438C4.9125 19.2653 3.6 17.7585 2.625 16.4233C1.65 15.0882 0.96875 13.8611 0.58125 12.7421C0.19375 11.6231 0 10.4787 0 9.30888C0 6.91832 0.7875 4.92195 2.3625 3.31977C3.9375 1.71759 5.9 0.916504 8.25 0.916504C9.55 0.916504 10.7875 1.19625 11.9625 1.75574C13.1375 2.31523 14.15 3.10361 15 4.12086C15.85 3.10361 16.8625 2.31523 18.0375 1.75574C19.2125 1.19625 20.45 0.916504 21.75 0.916504C24.1 0.916504 26.0625 1.71759 27.6375 3.31977C29.2125 4.92195 30 6.91832 30 9.30888C30 10.4787 29.8063 11.6231 29.4188 12.7421C29.0313 13.8611 28.35 15.0882 27.375 16.4233C26.4 17.7585 25.0875 19.2653 23.4375 20.9438C21.7875 22.6222 19.7 24.6186 17.175 26.9329L15 28.9165ZM15 24.7966C17.4 22.6095 19.375 20.7339 20.925 19.1699C22.475 17.6059 23.7 16.2453 24.6 15.0882C25.5 13.931 26.125 12.9011 26.475 11.9982C26.825 11.0954 27 10.199 27 9.30888C27 7.78299 26.5 6.51142 25.5 5.49416C24.5 4.4769 23.25 3.96828 21.75 3.96828C20.575 3.96828 19.4875 4.30524 18.4875 4.97917C17.4875 5.65311 16.8 6.51142 16.425 7.55411H13.575C13.2 6.51142 12.5125 5.65311 11.5125 4.97917C10.5125 4.30524 9.425 3.96828 8.25 3.96828C6.75 3.96828 5.5 4.4769 4.5 5.49416C3.5 6.51142 3 7.78299 3 9.30888C3 10.199 3.175 11.0954 3.525 11.9982C3.875 12.9011 4.5 13.931 5.4 15.0882C6.3 16.2453 7.525 17.6059 9.075 19.1699C10.625 20.7339 12.6 22.6095 15 24.7966Z" fill="#E3E3E3"/>
</svg>
